<?xml version="1.0" encoding="UTF-8" standalone="no"?>
<svg
   xmlns:dc="http://purl.org/dc/elements/1.1/"
   xmlns:cc="http://creativecommons.org/ns#"
   xmlns:rdf="http://www.w3.org/1999/02/22-rdf-syntax-ns#"
   xmlns:svg="http://www.w3.org/2000/svg"
   xmlns="http://www.w3.org/2000/svg"
   xmlns:sodipodi="http://sodipodi.sourceforge.net/DTD/sodipodi-0.dtd"
   xmlns:inkscape="http://www.inkscape.org/namespaces/inkscape"
   viewBox="0 0 472 102"
   preserveAspectRatio="xMidYMid meet"
   class="css-1y5supu"
   id="eechaegf"
   version="1.1"
   sodipodi:docname="logo.svg"
   inkscape:version="0.92.2 2405546, 2018-03-11"
   inkscape:export-filename="/home/bram/program/bdr/embed-md/logo.svg.png"
   inkscape:export-xdpi="273.47"
   inkscape:export-ydpi="273.47">
  <metadata
     id="metadata16">
    <rdf:RDF>
      <cc:Work
         rdf:about="">
        <dc:format>image/svg+xml</dc:format>
        <dc:type
           rdf:resource="http://purl.org/dc/dcmitype/StillImage" />
        <dc:title />
      </cc:Work>
    </rdf:RDF>
  </metadata>
  <sodipodi:namedview
     pagecolor="#ffffff"
     bordercolor="#666666"
     borderopacity="1"
     objecttolerance="10"
     gridtolerance="10"
     guidetolerance="10"
     inkscape:pageopacity="0"
     inkscape:pageshadow="2"
     inkscape:window-width="1335"
     inkscape:window-height="903"
     id="namedview14"
     showgrid="false"
     inkscape:zoom="0.78813559"
     inkscape:cx="4.4408602"
     inkscape:cy="51"
     inkscape:window-x="695"
     inkscape:window-y="167"
     inkscape:window-maximized="0"
     inkscape:current-layer="layer2" />
  <defs
     id="SvgjsDefs1110" />
  <g
     inkscape:groupmode="layer"
     id="layer1"
     inkscape:label="Layer 1">
    <rect
       id="rect3722"
       width="526.55914"
       height="135.76344"
       x="-21.569895"
       y="-19.806454"
       style="fill:#364699;fill-opacity:1" />
  </g>
  <g
     inkscape:groupmode="layer"
     id="layer2"
     inkscape:label="Layer 2">
    <g
       style="stroke-width:1.34992851;stroke-miterlimit:4;stroke-dasharray:none;stroke:none;stroke-opacity:1"
       id="SvgjsG1112"
       featurekey="symbol1"
       fill="#fcd303"
       transform="matrix(0.74077997,0,0,0.74077997,7.7895126,14.156113)"
       inkscape:export-xdpi="633.08765"
       inkscape:export-ydpi="633.08765">
      <path
         fill="#fcd303"
         d="M97.455,32.455c-0.002-0.008,0.002-0.018-0.002-0.025c-0.005-0.007-0.014-0.008-0.02-0.015  c-0.012-0.015-0.021-0.024-0.035-0.035c-0.007-0.006-0.008-0.015-0.016-0.02L50.325,5.201c-0.008-0.004-0.017,0-0.025-0.003  c-0.023-0.009-0.043-0.009-0.068-0.009c-0.026,0-0.047-0.001-0.072,0.009c-0.007,0.003-0.017-0.001-0.024,0.003L3.079,32.36  c-0.007,0.004-0.008,0.014-0.015,0.02C3.049,32.391,3.04,32.4,3.029,32.415c-0.006,0.006-0.015,0.007-0.02,0.015  c-0.005,0.008,0,0.017-0.003,0.025C3,32.47,2.996,32.482,2.994,32.5c-0.001,0.009-0.01,0.015-0.01,0.024v2.154  c0,0.009,0.008,0.015,0.01,0.024c0.003,0.025,0.014,0.043,0.026,0.064c0.013,0.022,0.023,0.041,0.042,0.056  c0.007,0.005,0.007,0.016,0.016,0.02l43.621,25.234v3.088L21.866,77.478c-0.007,0.005-0.008,0.014-0.015,0.02  c-0.015,0.011-0.024,0.021-0.035,0.034c-0.006,0.008-0.016,0.008-0.021,0.016c-0.005,0.008,0,0.018-0.004,0.025  c-0.005,0.016-0.009,0.028-0.011,0.045c-0.001,0.01-0.01,0.016-0.01,0.024v1.113c0,0.009,0.008,0.015,0.01,0.024  c0.003,0.025,0.014,0.041,0.026,0.062c0.013,0.023,0.023,0.042,0.044,0.058c0.006,0.006,0.007,0.015,0.015,0.02l28.27,16.272  c0.03,0.018,0.062,0.025,0.095,0.025c0.032,0,0.065-0.008,0.095-0.025L78.56,78.919c0.007-0.005,0.009-0.014,0.015-0.02  c0.021-0.016,0.031-0.034,0.045-0.058c0.012-0.021,0.023-0.037,0.025-0.062c0.002-0.01,0.011-0.016,0.011-0.024v-1.113  c0-0.009-0.009-0.015-0.011-0.024c-0.002-0.018-0.005-0.029-0.013-0.045c-0.003-0.009,0.002-0.018-0.003-0.025  c-0.004-0.008-0.014-0.008-0.02-0.015c-0.011-0.015-0.02-0.024-0.035-0.035c-0.006-0.006-0.008-0.015-0.015-0.02L53.725,63.164  v-3.088l43.658-25.234c0.008-0.004,0.009-0.014,0.016-0.02c0.021-0.016,0.031-0.035,0.045-0.057  c0.012-0.021,0.022-0.039,0.025-0.063c0.002-0.009,0.01-0.015,0.01-0.024v-2.154c0-0.009-0.008-0.015-0.01-0.024  C97.467,32.482,97.463,32.47,97.455,32.455z M50.23,5.584l46.68,26.939L50.23,59.497L3.552,32.524L50.23,5.584z M50.325,62.034  l3.02-1.739v2.979v14.357l-0.06,0.401l-0.32,0.445l-0.461,0.362l-0.68,0.271l-0.793,0.207l-0.802,0.035l-0.836-0.035l-0.79-0.205  l-0.612-0.273l-0.495-0.361l-0.289-0.45l-0.129-0.417V63.273v-2.98l3.058,1.742c0.03,0.017,0.061,0.025,0.094,0.025  C50.263,62.061,50.295,62.052,50.325,62.034z M3.364,34.569v-1.716L50.04,59.825v1.718l-3.056-1.74L3.364,34.569z M50.04,94.699  L22.151,78.646v-0.675L50.04,94.022V94.699z M78.275,78.646L50.42,94.699v-0.678l27.855-16.051V78.646z M78.086,77.642L50.23,93.693  l-27.89-16.053l24.358-14.039v14.04c0,0.011,0.009,0.017,0.011,0.026c0.001,0.011-0.005,0.02-0.002,0.03l0.145,0.466  c0.004,0.011,0.013,0.016,0.019,0.025c0.004,0.007,0,0.014,0.004,0.021l0.323,0.502c0.005,0.01,0.019,0.007,0.025,0.014  c0.01,0.012,0.01,0.027,0.022,0.037l0.54,0.395c0.007,0.006,0.016,0.004,0.023,0.008c0.005,0.004,0.006,0.01,0.012,0.013  l0.646,0.288c0.006,0.002,0.014,0.002,0.021,0.004c0.003,0.002,0.003,0.005,0.007,0.006l0.826,0.215  c0.013,0.004,0.025,0.005,0.038,0.006c0.001,0,0.002,0.001,0.003,0.001l0.863,0.035c0.001,0,0.004,0,0.007,0s0.005,0,0.008,0  l0.828-0.035c0.001,0,0.002-0.002,0.004-0.002c0.012,0,0.023-0.001,0.035-0.005l0.826-0.215c0.002-0.001,0.003-0.004,0.006-0.004  c0.006-0.002,0.012-0.002,0.017-0.004l0.718-0.287c0.008-0.003,0.01-0.012,0.018-0.017c0.01-0.005,0.021-0.003,0.029-0.011  l0.504-0.395c0.009-0.008,0.008-0.02,0.016-0.028c0.006-0.007,0.017-0.003,0.021-0.011l0.359-0.503  c0.009-0.013,0.004-0.026,0.01-0.039c0.006-0.016,0.02-0.024,0.023-0.042l0.07-0.467c0-0.004-0.004-0.008-0.004-0.014  c0.001-0.006,0.006-0.01,0.006-0.015v-14.04L78.086,77.642z M97.099,34.569L53.44,59.803l-3.02,1.738v-1.716l46.678-26.973V34.569z"
         id="path4"
         style="stroke-width:1.34992851;stroke-miterlimit:4;stroke-dasharray:none;stroke:none;stroke-opacity:1" />
    </g>
    <g
       style=""
       id="SvgjsG1113"
       featurekey="text1"
       fill="#ffffff"
       transform="matrix(4.0971245,0,0,4.0971245,94.792189,-32.775737)">
      <path
         d="M9.9659 11.729 l-7.3556 0.00049656 l0 4.9659 l4.5424 0 c0.15254 0 0.23729 0.067797 0.23729 0.23729 l0 0.81339 c0 0.15254 -0.084746 0.22034 -0.23729 0.22034 l-4.5424 0 l0 4.7458 l7.3559 0 c0.15254 0 0.23712 0.084746 0.23712 0.23712 l0 0.81356 c0 0.16949 -0.067797 0.23712 -0.23729 0.23712 l-8.4746 0 c-0.15254 0 -0.22034 -0.08458 -0.22034 -0.22017 l0 -13.119 c0 -0.15254 0.084746 -0.22034 0.22034 -0.22034 l8.4746 0 c0.15254 0 0.23712 0.084746 0.23712 0.22034 l0 0.84746 c0 0.13559 -0.067797 0.22034 -0.23729 0.22034 z M26.864389830508472 23.72898 c0.016949 0.15238 -0.016784 0.27102 -0.15238 0.27102 l-0.72881 0 c-0.32203 0 -0.45763 -0.20322 -0.45763 -0.47441 l0 -4.678 c0 -1.2712 -0.83051 -2.1864 -2.3051 -2.1864 c-1.2712 0 -2.2373 0.69475 -3.0678 1.5253 c0.033898 0.15254 0.033898 0.32203 0.033898 0.49153 l0 3.8136 c0.016949 0.44085 0.033732 0.84746 0.067631 1.2375 c0.016784 0.15238 -0.017115 0.27102 -0.15271 0.27102 l-0.72881 0 c-0.30508 0 -0.45763 -0.20322 -0.45763 -0.47441 l0 -4.678 c0 -1.2712 -0.83051 -2.1864 -2.3051 -2.1864 c-1.2542 0 -2.2203 0.6778 -3.0169 1.4914 l0 5.6271 c0 0.11864 -0.084746 0.22017 -0.20339 0.22017 l-0.89831 0 c-0.11864 0 -0.18644 -0.10153 -0.18644 -0.22017 l0 -7.9661 c0 -0.10169 0.084746 -0.20339 0.18644 -0.20339 l0.64407 0 c0.27102 0 0.44068 0.27119 0.45763 0.49153 l0 0.69492 c0.71186 -0.62712 1.7458 -1.3051 3.1358 -1.3051 c1.2712 0 2.5085 0.54237 3.1017 1.6441 c0.71186 -0.69492 1.8644 -1.6441 3.5085 -1.6441 c1.7627 0 3.4576 1.0508 3.4576 3.1864 l0 3.8136 c0.016949 0.44085 0.033898 0.84746 0.067797 1.2375 z M32.76266440677966 15.5256 c2 0 3.8981 1.6439 3.8981 4.2032 c0 2.4236 -1.4915 4.3725 -3.8983 4.3725 c-1.0339 0 -1.9661 -0.38949 -2.661 -0.89797 l0 0.27119 c0 0.33898 -0.33898 0.52542 -0.61017 0.52542 l-0.47458 0 c-0.10186 0 -0.18644 -0.08458 -0.18644 -0.20322 l0 -12.119 c0 -0.42373 -0.067797 -0.67814 -0.10169 -0.9661 c-0.016784 -0.15254 0.034064 -0.27119 0.15271 -0.27119 l0.77966 0 c0.27119 0 0.44068 0.16949 0.44068 0.4239 l0 5.4576 c0.61017 -0.42373 1.4576 -0.79661 2.661 -0.79661 z M32.55916440677966 22.9153 c1.661 0 2.8475 -1.2885 2.8475 -3.1866 c0 -2.0678 -1.5254 -3 -2.8475 -3 c-0.94915 0 -1.7627 0.32203 -2.4576 0.81356 l0 4.5424 c0.64407 0.44085 1.4407 0.83068 2.4576 0.83068 z M45.609974576271185 20.3731 c0.47458 0 0.81356 -0.18661 0.81356 -0.79678 c0 -2.1695 -1.678 -4.0847 -4.1017 -4.0847 c-2.3559 0 -4.1695 1.8814 -4.1695 4.3051 c0 2.5085 1.9153 4.3047 4.2881 4.3047 c1.4915 0 2.661 -0.71153 3.4237 -1.6946 c0.084746 -0.11864 0.067797 -0.20339 -0.033898 -0.30508 l-0.22034 -0.28814 c-0.10153 -0.13559 -0.22034 -0.11864 -0.33898 -0.016784 c-0.64407 0.64407 -1.5763 1.1525 -2.7119 1.1525 c-1.8136 0 -2.8983 -1.2712 -3.0507 -2.5763 l6.1015 0 z M39.491374576271184 19.339 c0.033898 -1.1356 0.9322 -2.661 2.8136 -2.661 s2.7458 1.5763 2.7966 2.661 l-5.6102 0 z M55.22019661016949 10.441 c0.27119 0 0.44068 0.16949 0.44068 0.4239 l0 12.932 c0 0.11864 -0.084746 0.20322 -0.18661 0.20322 l-0.47441 0 c-0.28814 0 -0.61017 -0.18644 -0.61017 -0.52542 l0 -0.27119 c-0.69492 0.52559 -1.6441 0.91508 -2.678 0.91508 c-2.4068 0 -3.9661 -1.949 -3.9661 -4.3727 c0 -2.5593 1.9661 -4.2034 3.9661 -4.2034 c1.2203 0 2.0508 0.39 2.678 0.81356 l0 -4.678 c0 -0.42373 -0.067797 -0.67814 -0.10169 -0.9661 c-0.016949 -0.15254 0.033898 -0.27119 0.15254 -0.27119 l0.77966 0 z M51.915096610169485 22.9324 c1.0339 0 1.8305 -0.38983 2.4746 -0.83051 l0 -4.5254 c-0.71186 -0.49153 -1.5254 -0.83051 -2.4746 -0.83051 c-1.339 0 -2.8983 0.9322 -2.8983 3 c0 1.8983 1.2373 3.1864 2.8983 3.1864 z  M77.81349152542373 10.441 c0.11864 0 0.20339 0.10186 0.20339 0.23746 l0 13.085 c0 0.15254 -0.084746 0.23712 -0.22034 0.23712 l-0.88136 0 c-0.16949 0 -0.23729 -0.08458 -0.23729 -0.23712 l0 -10.61 l-6.1697 10.407 c-0.067797 0.11864 -0.13559 0.16949 -0.25424 0.16949 l-0.067797 0 c-0.10169 0 -0.18644 -0.050847 -0.25424 -0.16949 l-6.1525 -10.407 l0 10.61 c0 0.15254 -0.084746 0.23712 -0.22034 0.23712 l-0.88136 0 c-0.15254 0 -0.23729 -0.08458 -0.23729 -0.23712 l0 -13.102 c0 -0.11881 0.067797 -0.22051 0.20339 -0.22051 l0.81356 0 c0.11864 0 0.18644 0.050847 0.25424 0.15271 l6.5086 10.983 l6.5254 -10.983 c0.050847 -0.10186 0.11864 -0.15271 0.27119 -0.15271 l0.79661 0 z M85.10153559322033 10.441 c4.6271 0 6.9153 3.4239 6.9153 6.6949 c0 3.4576 -2.3051 6.8642 -6.8644 6.8642 l-4.6271 0 c-0.15254 0 -0.22034 -0.08458 -0.22034 -0.22017 l0 -13.119 c0 -0.15254 0.067797 -0.22034 0.22034 -0.22034 l4.5763 0 z M85.22013559322033 22.7122 c3.5422 0 5.4576 -2.7798 5.4407 -5.5764 c0 -2.7797 -1.8644 -5.4066 -5.4407 -5.4066 l-3.5932 0 l0.016949 10.983 l3.5763 0 z"
         id="path7" />
    </g>
    <g
       style=""
       id="SvgjsG1114"
       featurekey="text3"
       fill="#fcd303"
       transform="matrix(1.1231393,0,0,1.1231393,99.865223,74.059)">
      <path
         d="M10.76 7.300000000000001 c0 0.56 -0.08 2 -0.78 2 c0 -2 -1.84 -2 -3.06 -2 c-0.6 0 -0.76 0.42 -0.76 0.84 l0 10.1 c0 0.62 0.48 1.16 1.22 1.16 l0.74 0 l0 0.6 l-5.34 0 l0 -0.6 l0.68 0 c0.6 0 1.24 -0.44 1.24 -1.16 l0 -10.02 c0 -0.52 -0.12 -0.94 -0.8 -0.94 c-2.62 0 -2.98 1.2 -3.14 1.66 c-0.26 0 -0.64 -0.7 -0.64 -1.28 c0 -0.26 0 -0.78 0.58 -1.08 c0.44 -0.22 1.22 -0.22 1.86 -0.22 c0.72 0 1.46 0.06 2.88 0.06 c0.42 0 3.62 -0.1 4.2 -0.1 c0.92 0 1.12 0.56 1.12 0.98 z M23 19.4 l0.5 0 l0 0.6 l-4.32 0 l0 -0.6 l0.48 0 c0.38 -0.02 0.6 -0.26 0.6 -0.54 c0 -0.14 -0.02 -0.28 -0.08 -0.44 c-0.26 -0.74 -0.86 -2.48 -1.02 -2.9 l-5.46 0 c-0.46 0.96 -1.08 2.42 -1.08 3.14 s0.2 1.18 0.5 1.2 c0 0.1 -0.34 0.48 -1.16 0.48 c-0.94 0 -1.04 -0.94 -1.04 -1.3 c0 -0.84 0.58 -1.96 1.1 -2.98 c1.88 -3.72 3.56 -7.18 3.56 -8.28 c0 -0.88 -0.58 -0.98 -0.74 -1 c0 -0.2 0.36 -0.6 1.1 -0.6 c1.26 0 1.78 1.06 2.18 2.18 c0.28 0.8 3.58 9.88 3.58 9.88 c0.3 0.82 0.96 1.16 1.3 1.16 z M14.22 14.379999999999999 l4.56 0 c-0.7 -1.86 -1.36 -3.82 -2.04 -5.68 c-0.34 0.8 -0.96 2.58 -2.52 5.68 z M34.1 9.86 c0 1.5 -0.78 2.32 -1.88 2.86 c1.2 0.3 2.56 1.36 2.56 3.34 c0 2.18 -1.46 3.94 -4.78 3.94 l-6.68 0 l0 -0.6 l0.52 0 c0.76 0 1.08 -0.5 1.08 -0.94 l0 -10.5 c0 -0.6 -0.42 -0.9 -0.88 -0.9 l-0.72 0 l0 -0.6 l1.92 0 c0.66 0 1.34 -0.08 1.94 -0.14 c0.64 -0.08 1.34 -0.14 2.16 -0.14 c3.72 0 4.76 1.92 4.76 3.68 z M29.72 19.06 c2.6 0 3.5 -1.72 3.5 -2.86 c0 -1.02 -0.48 -2.66 -2.56 -2.66 c-0.38 0 -1.04 0.12 -1.46 0.12 c-0.6 0 -0.94 -0.24 -0.94 -0.76 c0 -0.28 0.3 -0.54 0.3 -0.54 s0.84 0.1 1.3 0.1 c1.6 0 2.68 -1.08 2.68 -2.48 c0 -1.26 -0.56 -2.86 -3.58 -2.86 c-0.76 0 -1.96 0.16 -2.6 0.52 l0 10.92 c0.06 0.06 0.54 0.5 3.36 0.5 z M39.04 7.9399999999999995 l0 10.32 c0 0.58 0.26 0.86 2.5 0.86 c1.2 0 2.92 -0.58 2.92 -1.86 c0 -0.42 -0.08 -0.54 -0.08 -0.54 c0.06 -0.04 0.32 -0.08 0.54 -0.08 c0.52 0 1 0.44 1 1.08 c0 1.84 -1.88 2.28 -3.84 2.28 l-6.1 0 l0 -0.72 l0.58 0 c0.74 0 1.02 -0.54 1.02 -0.9 l0 -10.36 c0 -0.28 -0.08 -0.98 -1.04 -0.98 l-0.52 0 l0 -0.58 l4.8 0 l0 0.58 l-0.8 0 c-0.48 0 -0.98 0.32 -0.98 0.9 z M54.660000000000004 6.34 c2.08 0 2.5 0.52 2.52 1.9 c0 0.74 -0.52 1.56 -1.18 1.56 c0 -1.8 -0.64 -2.58 -2.9 -2.58 c-1.3 0 -3.1 0.12 -3.1 0.98 l0 4.2 l3.42 0 c1 0 1.16 0.46 1.16 0.76 c0 0.58 -0.72 1.16 -1.28 1.16 c0 -0.54 -0.38 -0.9 -1.28 -0.9 l-2.02 0 l0 4.94 c0 0.72 1.94 0.74 3.34 0.74 c2.62 0 3.3 -1.98 3.3 -2.32 c0.58 0 1.08 0.56 1.08 1.16 c0 1.72 -2 2.06 -3.94 2.06 l-6.84 0 l0 -0.72 l0.66 0 c0.42 0 0.96 -0.26 0.96 -0.9 l0 -10.4 c0 -0.36 -0.14 -0.94 -0.96 -0.94 l-0.62 0 l0 -0.58 l2.84 0 c0.98 0 3.82 -0.12 4.84 -0.12 z M64.04 13.879999999999999 c-3.6 -1.52 -4 -2.9 -4 -4.3 c0 -1.54 1.48 -3.4 4.22 -3.4 c2.78 0 4.1 1.32 4.1 2.68 c0 1.24 -0.78 1.56 -1.32 1.56 c0 -2.48 -1.12 -3.32 -2.78 -3.32 c-1.54 0 -2.76 1.06 -2.76 2.4 c0 3.46 7.32 2.92 7.32 7.26 c0 1.84 -1.78 3.56 -4.82 3.56 c-3.1 0 -4.46 -1.64 -4.46 -2.76 c0 -1.26 1.08 -1.44 1.08 -1.44 s0.28 3.18 3.6 3.18 c2.68 0 3.14 -1.74 3.14 -2.38 c0 -0.68 -0.08 -1.68 -3.32 -3.04 z  M83.32000000000001 20.34 c-3.78 0 -6.66 -3.16 -6.66 -7.06 c0 -4.08 2.44 -7.1 6.6 -7.1 c4.44 0 6.7 3.18 6.7 7.1 c0 3.78 -2.4 7.06 -6.64 7.06 z M78.28000000000002 13.280000000000001 c0 3.2 1.84 6.04 5.08 6.06 c3.12 0 4.98 -2.68 4.98 -6.06 c0 -3.42 -1.8 -6.16 -5.12 -6.16 c-3.44 0 -4.9 3.1 -4.94 6.16 z M92.96000000000001 18.26 l0 -10.04 c0 -0.52 -0.22 -1.18 -1.3 -1.18 l-0.36 0 l0 -0.58 l1.7 0 c1.52 0 2 0.68 2.66 1.64 l6.3 9.32 l0 -9.2 c0 -0.7 -0.3 -1.18 -0.92 -1.18 l-0.7 0 l0 -0.58 l4.46 0 l0 0.58 l-0.56 0 c-0.76 0 -0.98 0.58 -0.98 1 l0 10.14 c0 1.06 0.66 1.56 0.84 1.56 c-0.34 0.4 -0.9 0.4 -1.26 0.4 c-0.34 0 -0.8 -0.18 -1.12 -0.62 c-0.52 -0.68 -7.44 -10.72 -7.44 -10.72 l0 9.32 c0 0.5 0.22 1.28 1.2 1.28 l0.62 0 l0 0.6 l-4.72 0 l0 -0.6 l0.5 0 c0.72 0 1.08 -0.56 1.08 -1.14 z  M131.36 19.4 l0 0.6 l-4.32 0 l0 -0.6 l0.22 0 c0.58 0 0.7 -0.52 0.7 -0.9 c0 -0.12 -0.14 -1.58 -0.3 -3.22 c-0.2 -2.16 -0.48 -5.04 -0.56 -6.02 c0 -0.22 0 -0.58 -0.02 -0.58 c-0.08 0 -0.68 1.46 -1.56 3.66 c-0.72 1.78 -1.68 4.22 -2.84 6.74 c-0.34 0.74 -0.82 0.92 -1.36 0.92 c-0.32 0 -0.56 -0.18 -0.56 -0.28 c0.06 -0.12 0.12 -0.32 0.12 -0.7 c0 -0.94 -2.16 -5.5 -2.94 -7.34 c-0.96 -2.28 -1.28 -3.04 -1.34 -3.04 c-0.12 0 -0.8 9.22 -0.8 9.62 c0 0.7 0.18 1.14 0.72 1.14 l0.22 0 l0 0.6 l-4.12 0 l0 -0.6 l0.36 0 c1.06 0 1.48 -0.86 1.52 -1.36 l0.82 -10.06 c-0.02 -0.5 -0.24 -0.94 -1.02 -0.94 l-0.72 0 l0 -0.58 l2.24 0 c1.18 0 1.66 0.36 2.2 1.7 c1.34 3.28 2.62 6 3.98 9.5 c1.48 -3.44 2.48 -6.26 3.66 -9.1 c0.2 -0.5 0.88 -2.1 2.38 -2.1 l2.24 0 l0 0.58 l-0.68 0 c-0.66 0 -1.1 0.28 -1.1 0.86 c0.02 0.34 0.12 1.7 0.98 10.06 c0.1 0.9 0.72 1.44 1.42 1.44 l0.46 0 z M140.72 6.34 c2.08 0 2.5 0.52 2.52 1.9 c0 0.74 -0.52 1.56 -1.18 1.56 c0 -1.8 -0.64 -2.58 -2.9 -2.58 c-1.3 0 -3.1 0.12 -3.1 0.98 l0 4.2 l3.42 0 c1 0 1.16 0.46 1.16 0.76 c0 0.58 -0.72 1.16 -1.28 1.16 c0 -0.54 -0.38 -0.9 -1.28 -0.9 l-2.02 0 l0 4.94 c0 0.72 1.94 0.74 3.34 0.74 c2.62 0 3.3 -1.98 3.3 -2.32 c0.58 0 1.08 0.56 1.08 1.16 c0 1.72 -2 2.06 -3.94 2.06 l-6.84 0 l0 -0.72 l0.66 0 c0.42 0 0.96 -0.26 0.96 -0.9 l0 -10.4 c0 -0.36 -0.14 -0.94 -0.96 -0.94 l-0.62 0 l0 -0.58 l2.84 0 c0.98 0 3.82 -0.12 4.84 -0.12 z M157.85999999999999 13.1 c0 2.64 -1.32 7.04 -5.86 7.04 c-1.7 0 -2.64 -0.48 -2.64 -1.2 c0 -0.76 0.9 -0.76 0.9 -0.76 s0.28 0.96 1.94 0.96 c2.9 0 4.06 -3.18 4.06 -6.04 c0 -2.08 -0.94 -5.92 -5.06 -5.92 c-0.42 0 -1.86 0 -2.78 0.44 l0 10 c0 0.82 -0.2 2.38 -1.86 2.38 l-1.18 0 l0 -0.6 l0.44 0 c0.74 0 1.14 -0.68 1.14 -1.28 l0 -9.98 c0 -0.62 -0.22 -1.1 -0.94 -1.1 l-0.64 0 l0 -0.58 l1.92 0 c1.34 0 2.66 -0.28 4.1 -0.28 c5.84 0 6.46 4.92 6.46 6.92 z M162.5 7.9 l0 10.4 c0 0.72 0.54 1.1 0.96 1.1 l0.56 0 l0 0.6 l-4.52 0 l0 -0.6 l0.56 0 c0.64 0 0.98 -0.48 0.98 -1.1 l0 -10.4 c0 -0.56 -0.44 -0.86 -0.98 -0.86 l-0.58 0 l0 -0.58 l4.54 0 l0 0.58 l-0.66 0 c-0.5 0 -0.86 0.4 -0.86 0.86 z M177.99999999999997 7.039999999999999 c-0.38 0 -0.98 0.24 -0.98 0.82 l0 10.12 c0 0.88 0.32 1.4 1.06 1.4 l0.66 0 l0 0.62 l-1.46 0 c-1.04 0 -1.72 -0.62 -1.72 -1.74 l0 -0.42 c-0.68 0.88 -2.1 2.3 -4.16 2.3 c-3.3 0 -4.56 -2.16 -4.56 -5 l0 -7.06 c0 -0.54 -0.2 -1.04 -1.06 -1.04 l-0.52 0 l0 -0.58 l4.62 0 l0 0.58 l-0.72 0 c-0.28 0 -0.86 0.18 -0.86 0.82 l0 7.04 c0 2.56 0.96 4.16 3.08 4.16 c2.54 0 4.18 -2.44 4.18 -3.42 l0 -7.5 c0 -0.6 -0.22 -1.1 -1.06 -1.1 l-0.52 0 l0 -0.58 l4.76 0 l0 0.58 l-0.74 0 z M198.73999999999995 19.4 l0 0.6 l-4.32 0 l0 -0.6 l0.22 0 c0.58 0 0.7 -0.52 0.7 -0.9 c0 -0.12 -0.14 -1.58 -0.3 -3.22 c-0.2 -2.16 -0.48 -5.04 -0.56 -6.02 c0 -0.22 0 -0.58 -0.02 -0.58 c-0.08 0 -0.68 1.46 -1.56 3.66 c-0.72 1.78 -1.68 4.22 -2.84 6.74 c-0.34 0.74 -0.82 0.92 -1.36 0.92 c-0.32 0 -0.56 -0.18 -0.56 -0.28 c0.06 -0.12 0.12 -0.32 0.12 -0.7 c0 -0.94 -2.16 -5.5 -2.94 -7.34 c-0.96 -2.28 -1.28 -3.04 -1.34 -3.04 c-0.12 0 -0.8 9.22 -0.8 9.62 c0 0.7 0.18 1.14 0.72 1.14 l0.22 0 l0 0.6 l-4.12 0 l0 -0.6 l0.36 0 c1.06 0 1.48 -0.86 1.52 -1.36 l0.82 -10.06 c-0.02 -0.5 -0.24 -0.94 -1.02 -0.94 l-0.72 0 l0 -0.58 l2.24 0 c1.18 0 1.66 0.36 2.2 1.7 c1.34 3.28 2.62 6 3.98 9.5 c1.48 -3.44 2.48 -6.26 3.66 -9.1 c0.2 -0.5 0.88 -2.1 2.38 -2.1 l2.24 0 l0 0.58 l-0.68 0 c-0.66 0 -1.1 0.28 -1.1 0.86 c0.02 0.34 0.12 1.7 0.98 10.06 c0.1 0.9 0.72 1.44 1.42 1.44 l0.46 0 z"
         id="path10" />
    </g>
  </g>
  <g
     id="SvgjsG1111"
     featurekey="root"
     fill="#364699" />
</svg>
